# xmcd CD database file
#
# Track frame offsets:
#	182
#	15377
#	34090
#	58512
#	74165
#	91135
#	102347
#	112507
#	125337
#	133725
#	165457
#	189707
#	207930
#
# Disc length: 2858 seconds
#
# Revision: 0
# Processed by: cddbd v1.5.2PL0 Copyright (c) Steve Scherf et al.
# Submitted via: CDex 1.70beta2
#
DISCID=ab0b280d
DTITLE=Willy Astor - The Sound of Islands Vol. 2
DYEAR=2001
DGENRE=Jazz
TTITLE0=Ich war noch nie in Havanna
TTITLE1=Mirakel
TTITLE2=Mein Regenbogen Prelude
TTITLE3=Concha Na Praia
TTITLE4=Schmetterlinge in Wien
TTITLE5=Mosche Mosche
TTITLE6=Norwegian Mood
TTITLE7=Caramello
TTITLE8=Ragtime 4 my 12 Lost Socks
TTITLE9=Angel De La Tierra
TTITLE10=Sahara
TTITLE11=Curry Landla
TTITLE12=Schlicht und ergreifend
EXTD=YEAR: 2001
EXTT0=
EXTT1=
EXTT2=
EXTT3=
EXTT4=
EXTT5=
EXTT6=
EXTT7=
EXTT8=
EXTT9=
EXTT10=
EXTT11=
EXTT12=
PLAYORDER=
